<?xml version="1.0" standalone="no"?>
<!DOCTYPE svg PUBLIC "-//W3C//DTD SVG 20010904//EN"
 "http://www.w3.org/TR/2001/REC-SVG-20010904/DTD/svg10.dtd">
<svg version="1.0" xmlns="http://www.w3.org/2000/svg"
 width="192.000000pt" height="75.000000pt" viewBox="0 0 192.000000 75.000000"
 preserveAspectRatio="xMidYMid meet">

<g transform="translate(0.000000,75.000000) scale(0.100000,-0.100000)"
fill="#000000" stroke="none">
<path d="M182 728 c-13 -13 -17 -504 -4 -525 11 -17 132 -25 252 -16 103 8
105 8 105 33 l0 25 -140 6 c-77 3 -141 7 -143 8 -2 0 -2 104 -1 229 1 126 -1
234 -5 240 -9 16 -49 15 -64 0z"/>
<path d="M655 582 c-71 -34 -105 -94 -105 -184 1 -204 228 -279 328 -110 23
40 27 58 27 123 0 67 -3 79 -28 112 -52 69 -148 94 -222 59z m145 -72 c45 -45
52 -110 19 -178 -14 -29 -33 -49 -55 -60 -31 -14 -37 -14 -69 1 -46 22 -75 70
-75 125 0 51 12 79 48 109 36 30 104 31 132 3z"/>
<path d="M1239 585 c-12 -12 -22 -13 -53 -4 -54 15 -100 4 -143 -34 -66 -58
-93 -169 -58 -237 36 -70 174 -110 248 -72 l37 20 0 -35 c0 -76 -61 -143 -130
-143 -25 0 -40 9 -66 37 -28 30 -38 35 -51 27 -25 -15 -25 -25 -3 -62 78 -128
275 -73 309 87 22 105 2 378 -31 418 -14 17 -40 16 -59 -2z m-10 -99 c18 -18
25 -38 29 -78 3 -49 1 -56 -28 -85 -49 -50 -119 -40 -169 23 -25 32 -26 55 -4
101 34 73 118 92 172 39z"/>
<path d="M1535 582 c-71 -34 -105 -94 -105 -184 1 -204 228 -279 328 -110 23
40 27 58 27 123 0 67 -3 79 -28 112 -52 69 -148 94 -222 59z m145 -72 c45 -45
52 -110 19 -178 -14 -29 -33 -49 -55 -60 -31 -14 -37 -14 -69 1 -46 22 -75 70
-75 125 0 51 12 79 48 109 36 30 104 31 132 3z"/>
</g>
</svg>
